<svg width="600" height="171" viewBox="0 0 600 171" fill="none" xmlns="http://www.w3.org/2000/svg">
<path d="M0 5.00001C0 2.23858 2.23858 0 5 0H595C597.761 0 600 2.23858 600 5V165.571C600 168.333 597.761 170.571 595 170.571H5C2.23857 170.571 0 168.333 0 165.571V5.00001Z" fill="#00AA58"/>
<path d="M426.336 32C426.336 29.2386 428.575 27 431.336 27H454.806H478.276C481.038 27 483.276 29.2386 483.276 32V40.0925C483.276 42.8539 481.038 45.0925 478.276 45.0925H431.336C428.575 45.0925 426.336 42.8539 426.336 40.0925V32Z" fill="url(#paint0_linear_18_67)"/>
<path d="M411 151.637C408.239 151.637 406 149.398 406 146.637L406 89.3185L406 32C406 29.2386 408.239 27 411 27L419.302 27C422.064 27 424.302 29.2386 424.302 32L424.302 146.637C424.302 149.398 422.064 151.637 419.302 151.637L411 151.637Z" fill="url(#paint1_linear_18_67)"/>
<path d="M426.336 85.2723C426.336 82.5109 428.575 80.2723 431.336 80.2723H453.739H476.142C478.904 80.2723 481.142 82.5109 481.142 85.2723V92.7226C481.142 95.484 478.904 97.7226 476.142 97.7226H431.336C428.575 97.7226 426.336 95.484 426.336 92.7226V85.2723Z" fill="url(#paint2_linear_18_67)"/>
<path d="M426.336 139.55C426.336 136.788 428.575 134.55 431.336 134.55H453.739H476.142C478.904 134.55 481.142 136.788 481.142 139.55V147C481.142 149.761 478.904 152 476.142 152H431.336C428.575 152 426.336 149.761 426.336 147V139.55Z" fill="url(#paint3_linear_18_67)"/>
<circle cx="91.5" cy="89.5" r="62.5" fill="#FFF500"/>
<mask id="mask0_18_67" style="mask-type:alpha" maskUnits="userSpaceOnUse" x="42" y="40" width="99" height="99">
<ellipse cx="91.4998" cy="89.4999" rx="48.9865" ry="48.9865" fill="url(#paint4_radial_18_67)"/>
</mask>
<g mask="url(#mask0_18_67)">
<ellipse cx="91.4998" cy="89.4999" rx="48.9865" ry="48.9865" fill="url(#paint5_radial_18_67)"/>
<path d="M90.9369 138.486V36.0089" stroke="#6C6C6C" stroke-width="3"/>
<path d="M40.2612 86.6846H142.739" stroke="#6C6C6C" stroke-width="3"/>
</g>
<circle cx="226.5" cy="89.5" r="62.5" fill="#FF2400"/>
<mask id="mask1_18_67" style="mask-type:alpha" maskUnits="userSpaceOnUse" x="177" y="40" width="99" height="99">
<circle cx="226.5" cy="89.5" r="48.9865" fill="url(#paint6_radial_18_67)"/>
</mask>
<g mask="url(#mask1_18_67)">
<circle cx="226.5" cy="89.5" r="48.9865" fill="url(#paint7_radial_18_67)"/>
<path d="M225.937 138.486V36.009" stroke="#6C6C6C" stroke-width="3"/>
<path d="M175.261 86.6846H277.739" stroke="#6C6C6C" stroke-width="3"/>
</g>
<rect x="356.018" y="80" width="72" height="24.9007" rx="2" transform="rotate(90 356.018 80)" fill="#161616"/>
<rect x="363.8" y="99.4595" width="1.94595" height="7.78146" transform="rotate(90 363.8 99.4595)" fill="#D9D9D9"/>
<rect x="363.8" y="96.5405" width="1.94595" height="7.78146" transform="rotate(90 363.8 96.5405)" fill="#D9D9D9"/>
<rect x="363.8" y="105.297" width="1.94595" height="7.78146" transform="rotate(90 363.8 105.297)" fill="#D9D9D9"/>
<rect x="363.8" y="102.378" width="1.94595" height="7.78146" transform="rotate(90 363.8 102.378)" fill="#D9D9D9"/>
<rect x="363.8" y="111.135" width="1.94595" height="7.78146" transform="rotate(90 363.8 111.135)" fill="#D9D9D9"/>
<rect x="363.8" y="108.216" width="1.94595" height="7.78146" transform="rotate(90 363.8 108.216)" fill="#D9D9D9"/>
<rect x="363.8" y="116.973" width="1.94595" height="7.78146" transform="rotate(90 363.8 116.973)" fill="#D9D9D9"/>
<rect x="363.8" y="114.054" width="1.94595" height="7.78146" transform="rotate(90 363.8 114.054)" fill="#D9D9D9"/>
<rect x="363.8" y="93.6216" width="1.94595" height="7.78146" transform="rotate(90 363.8 93.6216)" fill="#D9D9D9"/>
<rect x="363.8" y="90.7027" width="1.94595" height="7.78146" transform="rotate(90 363.8 90.7027)" fill="#D9D9D9"/>
<rect x="363.8" y="128.649" width="1.94595" height="7.78146" transform="rotate(90 363.8 128.649)" fill="#D9D9D9"/>
<rect x="363.8" y="125.73" width="1.94595" height="7.78146" transform="rotate(90 363.8 125.73)" fill="#D9D9D9"/>
<rect x="363.8" y="134.487" width="1.94595" height="7.78146" transform="rotate(90 363.8 134.487)" fill="#D9D9D9"/>
<rect x="363.8" y="131.568" width="1.94595" height="7.78146" transform="rotate(90 363.8 131.568)" fill="#D9D9D9"/>
<rect x="363.8" y="140.324" width="1.94595" height="7.78146" transform="rotate(90 363.8 140.324)" fill="#D9D9D9"/>
<rect x="363.8" y="137.405" width="1.94595" height="7.78146" transform="rotate(90 363.8 137.405)" fill="#D9D9D9"/>
<rect x="363.8" y="146.162" width="1.94595" height="7.78146" transform="rotate(90 363.8 146.162)" fill="#D9D9D9"/>
<rect x="363.8" y="143.243" width="1.94595" height="7.78146" transform="rotate(90 363.8 143.243)" fill="#D9D9D9"/>
<rect x="363.8" y="122.811" width="1.94595" height="7.78146" transform="rotate(90 363.8 122.811)" fill="#D9D9D9"/>
<rect x="363.8" y="119.892" width="1.94595" height="7.78146" transform="rotate(90 363.8 119.892)" fill="#D9D9D9"/>
<rect x="363.8" y="146.162" width="1.94595" height="7.78146" transform="rotate(90 363.8 146.162)" fill="#D9D9D9"/>
<rect x="363.8" y="143.243" width="1.94595" height="7.78146" transform="rotate(90 363.8 143.243)" fill="#D9D9D9"/>
<rect x="363.8" y="87.7838" width="1.94595" height="7.78146" transform="rotate(90 363.8 87.7838)" fill="#D9D9D9"/>
<rect x="331.118" y="99.4595" width="1.94595" height="7.78146" transform="rotate(90 331.118 99.4595)" fill="#D9D9D9"/>
<rect x="331.118" y="96.5405" width="1.94595" height="7.78146" transform="rotate(90 331.118 96.5405)" fill="#D9D9D9"/>
<rect x="331.118" y="105.297" width="1.94595" height="7.78146" transform="rotate(90 331.118 105.297)" fill="#D9D9D9"/>
<rect x="331.118" y="102.378" width="1.94595" height="7.78146" transform="rotate(90 331.118 102.378)" fill="#D9D9D9"/>
<rect x="331.118" y="111.135" width="1.94595" height="7.78146" transform="rotate(90 331.118 111.135)" fill="#D9D9D9"/>
<rect x="331.118" y="108.216" width="1.94595" height="7.78146" transform="rotate(90 331.118 108.216)" fill="#D9D9D9"/>
<rect x="331.118" y="116.973" width="1.94595" height="7.78146" transform="rotate(90 331.118 116.973)" fill="#D9D9D9"/>
<rect x="331.118" y="114.054" width="1.94595" height="7.78146" transform="rotate(90 331.118 114.054)" fill="#D9D9D9"/>
<rect x="331.118" y="93.6216" width="1.94595" height="7.78146" transform="rotate(90 331.118 93.6216)" fill="#D9D9D9"/>
<rect x="331.118" y="90.7027" width="1.94595" height="7.78146" transform="rotate(90 331.118 90.7027)" fill="#D9D9D9"/>
<rect x="331.118" y="128.649" width="1.94595" height="7.78146" transform="rotate(90 331.118 128.649)" fill="#D9D9D9"/>
<rect x="331.118" y="125.73" width="1.94595" height="7.78146" transform="rotate(90 331.118 125.73)" fill="#D9D9D9"/>
<rect x="331.118" y="134.487" width="1.94595" height="7.78146" transform="rotate(90 331.118 134.487)" fill="#D9D9D9"/>
<rect x="331.118" y="131.568" width="1.94595" height="7.78146" transform="rotate(90 331.118 131.568)" fill="#D9D9D9"/>
<rect x="331.118" y="140.324" width="1.94595" height="7.78146" transform="rotate(90 331.118 140.324)" fill="#D9D9D9"/>
<rect x="331.118" y="137.405" width="1.94595" height="7.78146" transform="rotate(90 331.118 137.405)" fill="#D9D9D9"/>
<rect x="331.118" y="146.162" width="1.94595" height="7.78146" transform="rotate(90 331.118 146.162)" fill="#D9D9D9"/>
<rect x="331.118" y="143.243" width="1.94595" height="7.78146" transform="rotate(90 331.118 143.243)" fill="#D9D9D9"/>
<rect x="331.118" y="122.811" width="1.94595" height="7.78146" transform="rotate(90 331.118 122.811)" fill="#D9D9D9"/>
<rect x="331.118" y="119.892" width="1.94595" height="7.78146" transform="rotate(90 331.118 119.892)" fill="#D9D9D9"/>
<rect x="331.118" y="146.162" width="1.94595" height="7.78146" transform="rotate(90 331.118 146.162)" fill="#D9D9D9"/>
<rect x="331.118" y="143.243" width="1.94595" height="7.78146" transform="rotate(90 331.118 143.243)" fill="#D9D9D9"/>
<rect x="331.118" y="87.7838" width="1.94595" height="7.78146" transform="rotate(90 331.118 87.7838)" fill="#D9D9D9"/>
<rect x="294" y="36.2308" width="101.159" height="29.5385" rx="2" fill="#161616"/>
<path d="M344.315 39.9231H343.128V41.0592H344.315V39.9231Z" fill="white"/>
<path d="M345.503 41.0592H344.315V43.3315H345.503V41.0592Z" fill="white"/>
<path d="M343.128 41.0592H341.941V43.3315H343.128V41.0592Z" fill="white"/>
<path d="M346.69 43.3315H345.503V45.6037H346.69V43.3315Z" fill="white"/>
<path d="M341.941 43.3315H340.753V45.6037H341.941V43.3315Z" fill="white"/>
<path d="M340.753 45.6038H339.566V47.8761H340.753V45.6038Z" fill="white"/>
<path d="M347.877 45.6038H346.69V47.8761H347.877V45.6038Z" fill="white"/>
<path d="M339.566 47.8756H334.817V49.0118H339.566V47.8756Z" fill="white"/>
<path d="M352.626 47.8756H347.877V49.0118H352.626V47.8756Z" fill="white"/>
<path d="M353.814 49.0118H352.626V50.1479H353.814V49.0118Z" fill="white"/>
<path d="M352.626 50.148H351.439V51.2841H352.626V50.148Z" fill="white"/>
<path d="M351.439 51.2842H350.252V52.4203H351.439V51.2842Z" fill="white"/>
<path d="M350.251 52.4203H349.064V53.5565H350.251V52.4203Z" fill="white"/>
<path d="M349.064 53.5565H347.877V54.6926H349.064V53.5565Z" fill="white"/>
<path d="M350.251 54.6922H349.064V58.1005H350.251V54.6922Z" fill="white"/>
<path d="M351.439 58.1007H350.252V60.373H351.439V58.1007Z" fill="white"/>
<path d="M350.251 60.373H347.877V61.5092H350.251V60.373Z" fill="white"/>
<path d="M347.877 59.2369H346.69V60.373H347.877V59.2369Z" fill="white"/>
<path d="M346.69 58.1007H345.503V59.2368H346.69V58.1007Z" fill="white"/>
<path d="M345.503 56.9645H344.315V58.1006H345.503V56.9645Z" fill="white"/>
<path d="M344.315 55.8283H343.128V56.9645H344.315V55.8283Z" fill="white"/>
<path d="M343.128 56.9645H341.941V58.1006H343.128V56.9645Z" fill="white"/>
<path d="M341.941 58.1007H340.753V59.2368H341.941V58.1007Z" fill="white"/>
<path d="M340.753 59.2369H339.566V60.373H340.753V59.2369Z" fill="white"/>
<path d="M339.566 60.373H337.192V61.5092H339.566V60.373Z" fill="white"/>
<path d="M337.192 58.1007H336.004V60.373H337.192V58.1007Z" fill="white"/>
<path d="M338.379 54.6922H337.192V58.1005H338.379V54.6922Z" fill="white"/>
<path d="M339.566 53.5565H338.379V54.6926H339.566V53.5565Z" fill="white"/>
<path d="M338.379 52.4203H337.192V53.5565H338.379V52.4203Z" fill="white"/>
<path d="M337.192 51.2842H336.004V52.4203H337.192V51.2842Z" fill="white"/>
<path d="M336.004 50.148H334.817V51.2841H336.004V50.148Z" fill="white"/>
<path d="M334.817 49.0118H333.63V50.1479H334.817V49.0118Z" fill="white"/>
<rect x="312.772" y="27" width="2.08576" height="9.23077" fill="#D9D9D9"/>
<rect x="309.643" y="27" width="2.08576" height="9.23077" fill="#D9D9D9"/>
<rect x="319.029" y="27" width="2.08576" height="9.23077" fill="#D9D9D9"/>
<rect x="315.9" y="27" width="2.08576" height="9.23077" fill="#D9D9D9"/>
<rect x="325.286" y="27" width="2.08576" height="9.23077" fill="#D9D9D9"/>
<rect x="322.158" y="27" width="2.08576" height="9.23077" fill="#D9D9D9"/>
<rect x="331.544" y="27" width="2.08576" height="9.23077" fill="#D9D9D9"/>
<rect x="328.415" y="27" width="2.08576" height="9.23077" fill="#D9D9D9"/>
<rect x="306.515" y="27" width="2.08576" height="9.23077" fill="#D9D9D9"/>
<rect x="303.386" y="27" width="2.08576" height="9.23077" fill="#D9D9D9"/>
<rect x="344.058" y="27" width="2.08576" height="9.23077" fill="#D9D9D9"/>
<rect x="340.93" y="27" width="2.08576" height="9.23077" fill="#D9D9D9"/>
<rect x="350.316" y="27" width="2.08576" height="9.23077" fill="#D9D9D9"/>
<rect x="347.187" y="27" width="2.08576" height="9.23077" fill="#D9D9D9"/>
<rect x="356.573" y="27" width="2.08576" height="9.23077" fill="#D9D9D9"/>
<rect x="353.444" y="27" width="2.08576" height="9.23077" fill="#D9D9D9"/>
<rect x="362.83" y="27" width="2.08576" height="9.23077" fill="#D9D9D9"/>
<rect x="359.701" y="27" width="2.08576" height="9.23077" fill="#D9D9D9"/>
<rect x="337.801" y="27" width="2.08576" height="9.23077" fill="#D9D9D9"/>
<rect x="334.672" y="27" width="2.08576" height="9.23077" fill="#D9D9D9"/>
<rect x="369.087" y="27" width="2.08576" height="9.23077" fill="#D9D9D9"/>
<rect x="365.959" y="27" width="2.08576" height="9.23077" fill="#D9D9D9"/>
<rect x="375.345" y="27" width="2.08576" height="9.23077" fill="#D9D9D9"/>
<rect x="372.216" y="27" width="2.08576" height="9.23077" fill="#D9D9D9"/>
<rect x="381.602" y="27" width="2.08576" height="9.23077" fill="#D9D9D9"/>
<rect x="378.473" y="27" width="2.08576" height="9.23077" fill="#D9D9D9"/>
<rect x="384.731" y="27" width="2.08576" height="9.23077" fill="#D9D9D9"/>
<rect x="384.731" y="27" width="2.08576" height="9.23077" fill="#D9D9D9"/>
<rect x="384.731" y="27" width="2.08576" height="9.23077" fill="#D9D9D9"/>
<rect x="362.83" y="27" width="2.08576" height="9.23077" fill="#D9D9D9"/>
<rect x="359.701" y="27" width="2.08576" height="9.23077" fill="#D9D9D9"/>
<rect x="300.257" y="27" width="2.08576" height="9.23077" fill="#D9D9D9"/>
<rect x="387.859" y="27" width="2.08576" height="9.23077" fill="#D9D9D9"/>
<rect x="312.772" y="65.7692" width="2.08576" height="9.23077" fill="#D9D9D9"/>
<rect x="309.643" y="65.7692" width="2.08576" height="9.23077" fill="#D9D9D9"/>
<rect x="319.029" y="65.7692" width="2.08576" height="9.23077" fill="#D9D9D9"/>
<rect x="315.9" y="65.7692" width="2.08576" height="9.23077" fill="#D9D9D9"/>
<rect x="325.286" y="65.7692" width="2.08576" height="9.23077" fill="#D9D9D9"/>
<rect x="322.158" y="65.7692" width="2.08576" height="9.23077" fill="#D9D9D9"/>
<rect x="331.544" y="65.7692" width="2.08576" height="9.23077" fill="#D9D9D9"/>
<rect x="328.415" y="65.7692" width="2.08576" height="9.23077" fill="#D9D9D9"/>
<rect x="306.515" y="65.7692" width="2.08576" height="9.23077" fill="#D9D9D9"/>
<rect x="303.386" y="65.7692" width="2.08576" height="9.23077" fill="#D9D9D9"/>
<rect x="344.058" y="65.7692" width="2.08576" height="9.23077" fill="#D9D9D9"/>
<rect x="340.93" y="65.7692" width="2.08576" height="9.23077" fill="#D9D9D9"/>
<rect x="350.316" y="65.7692" width="2.08576" height="9.23077" fill="#D9D9D9"/>
<rect x="347.187" y="65.7692" width="2.08576" height="9.23077" fill="#D9D9D9"/>
<rect x="356.573" y="65.7692" width="2.08576" height="9.23077" fill="#D9D9D9"/>
<rect x="353.444" y="65.7692" width="2.08576" height="9.23077" fill="#D9D9D9"/>
<rect x="362.83" y="65.7692" width="2.08576" height="9.23077" fill="#D9D9D9"/>
<rect x="359.701" y="65.7692" width="2.08576" height="9.23077" fill="#D9D9D9"/>
<rect x="337.801" y="65.7692" width="2.08576" height="9.23077" fill="#D9D9D9"/>
<rect x="334.672" y="65.7692" width="2.08576" height="9.23077" fill="#D9D9D9"/>
<rect x="369.087" y="65.7692" width="2.08576" height="9.23077" fill="#D9D9D9"/>
<rect x="365.959" y="65.7692" width="2.08576" height="9.23077" fill="#D9D9D9"/>
<rect x="375.345" y="65.7692" width="2.08576" height="9.23077" fill="#D9D9D9"/>
<rect x="372.216" y="65.7692" width="2.08576" height="9.23077" fill="#D9D9D9"/>
<rect x="381.602" y="65.7692" width="2.08576" height="9.23077" fill="#D9D9D9"/>
<rect x="378.473" y="65.7692" width="2.08576" height="9.23077" fill="#D9D9D9"/>
<rect x="384.731" y="65.7692" width="2.08576" height="9.23077" fill="#D9D9D9"/>
<rect x="384.731" y="65.7692" width="2.08576" height="9.23077" fill="#D9D9D9"/>
<rect x="384.731" y="65.7692" width="2.08576" height="9.23077" fill="#D9D9D9"/>
<rect x="362.83" y="65.7692" width="2.08576" height="9.23077" fill="#D9D9D9"/>
<rect x="359.701" y="65.7692" width="2.08576" height="9.23077" fill="#D9D9D9"/>
<rect x="300.257" y="65.7692" width="2.08576" height="9.23077" fill="#D9D9D9"/>
<rect x="387.859" y="65.7692" width="2.08576" height="9.23077" fill="#D9D9D9"/>
<path fill-rule="evenodd" clip-rule="evenodd" d="M512.36 28.5997C513.387 27.5739 514.762 27 516.194 27H539.585C541.016 27 542.391 27.5739 543.418 28.5997L560.414 45.5843L554.142 52.2211L538.164 36.2546H517.614L503 50.8583V70.4553L516.365 82.8573H537.235C538.809 82.8573 540.308 83.5507 541.352 84.7621L558.666 104.854C559.557 105.889 560.049 107.223 560.049 108.605V127.954C560.049 129.421 559.495 130.83 558.504 131.885L541.216 150.275C540.179 151.378 538.752 152 537.261 152H515.09C513.502 152 511.991 151.294 510.947 150.064L495.357 131.704C494.482 130.673 494 129.352 494 127.984V109.943H503V126.634L516.68 142.745H535.777L551.049 126.499V109.97L535.66 92.1118H515.02C513.658 92.1118 512.346 91.5927 511.335 90.655L495.815 76.2541C494.66 75.1817 494 73.656 494 72.0553V49.3373C494 47.8093 494.601 46.3463 495.667 45.2814L512.36 28.5997Z" fill="#005136"/>
<path d="M561.116 47.6315C561.116 50.4151 558.794 52.6716 555.93 52.6716C553.065 52.6716 550.743 50.4151 550.743 47.6315C550.743 44.8479 553.065 42.5914 555.93 42.5914C558.794 42.5914 561.116 44.8479 561.116 47.6315Z" fill="url(#paint8_radial_18_67)"/>
<path d="M503.49 109.232C503.49 112.016 501.168 114.273 498.304 114.273C495.44 114.273 493.118 112.016 493.118 109.232C493.118 106.449 495.44 104.192 498.304 104.192C501.168 104.192 503.49 106.449 503.49 109.232Z" fill="url(#paint9_radial_18_67)"/>
<path d="M501.145 109.355C501.145 111.129 499.665 112.567 497.84 112.567C496.014 112.567 494.534 111.129 494.534 109.355C494.534 107.581 496.014 106.143 497.84 106.143C499.665 106.143 501.145 107.581 501.145 109.355Z" fill="#CDAD00"/>
<path d="M559.699 47.6868C559.699 49.4609 558.219 50.8991 556.394 50.8991C554.568 50.8991 553.088 49.4609 553.088 47.6868C553.088 45.9127 554.568 44.4745 556.394 44.4745C558.219 44.4745 559.699 45.9127 559.699 47.6868Z" fill="#CDAD00"/>
<ellipse cx="10.669" cy="10.7761" rx="10.669" ry="10.7761" transform="matrix(-0.261615 0.965172 -0.966664 -0.256048 598.528 7.02457)" fill="#D9D9D9"/>
<path d="M592.577 17.4132C594.169 13.4505 592.211 8.96295 588.202 7.38904C584.195 5.81474 579.655 7.75051 578.063 11.7125C576.47 15.674 578.429 20.161 582.437 21.7366C586.444 23.31 590.985 21.3753 592.577 17.4132ZM581.809 18.1227L583.732 15.4787L583.503 14.1857L580.845 12.2954L581.721 11.0933L584.362 12.9699L585.726 12.734L587.613 10.1393L588.83 11.0048L586.916 13.6388L587.146 14.9487L589.795 16.8302L588.92 18.0336L586.222 16.117L584.954 16.3369L583.027 18.9864L581.809 18.1227Z" fill="black"/>
<path d="M592.577 17.4132C594.169 13.4505 592.211 8.96295 588.202 7.38904C584.195 5.81474 579.655 7.75051 578.063 11.7125C576.47 15.674 578.429 20.161 582.437 21.7366C586.444 23.31 590.985 21.3753 592.577 17.4132ZM581.809 18.1227L583.732 15.4787L583.503 14.1857L580.845 12.2954L581.721 11.0933L584.362 12.9699L585.726 12.734L587.613 10.1393L588.83 11.0048L586.916 13.6388L587.146 14.9487L589.795 16.8302L588.92 18.0336L586.222 16.117L584.954 16.3369L583.027 18.9864L581.809 18.1227Z" fill="white"/>
<path d="M581.809 18.1227L583.732 15.4787L583.503 14.1857L580.845 12.2954L581.721 11.0933L584.362 12.9699L585.726 12.734L587.613 10.1393L588.83 11.0048L586.916 13.6388L587.146 14.9487L589.795 16.8302L588.92 18.0336L586.222 16.117L584.954 16.3369L583.027 18.9864L581.809 18.1227Z" fill="#737373"/>
<ellipse cx="14.7317" cy="156.06" rx="10.6607" ry="10.7843" transform="rotate(90 14.7317 156.06)" fill="#D9D9D9"/>
<path d="M22.4874 156.956C22.9883 152.721 19.922 148.887 15.6378 148.393C11.355 147.897 7.4761 150.929 6.976 155.163C6.47482 159.397 9.54159 163.23 13.8254 163.726C18.1079 164.221 21.9873 161.19 22.4874 156.956ZM12.2724 160.396L13.4377 157.35L12.8778 156.16L9.81558 155.014L10.3468 153.629L13.3893 154.766L14.6455 154.189L15.7884 151.2L17.1908 151.725L16.0316 154.759L16.597 155.965L19.6481 157.105L19.1178 158.491L16.0101 157.33L14.8427 157.867L13.675 160.919L12.2724 160.396Z" fill="black"/>
<path d="M22.4874 156.956C22.9883 152.721 19.922 148.887 15.6378 148.393C11.355 147.897 7.4761 150.929 6.976 155.163C6.47482 159.397 9.54159 163.23 13.8254 163.726C18.1079 164.221 21.9873 161.19 22.4874 156.956ZM12.2724 160.396L13.4377 157.35L12.8778 156.16L9.81558 155.014L10.3468 153.629L13.3893 154.766L14.6455 154.189L15.7884 151.2L17.1908 151.725L16.0316 154.759L16.597 155.965L19.6481 157.105L19.1178 158.491L16.0101 157.33L14.8427 157.867L13.675 160.919L12.2724 160.396Z" fill="white"/>
<path d="M12.2724 160.396L13.4377 157.35L12.8778 156.16L9.81558 155.014L10.3468 153.629L13.3893 154.766L14.6455 154.189L15.7884 151.2L17.1908 151.725L16.0316 154.759L16.597 155.965L19.6481 157.105L19.1178 158.491L16.0101 157.33L14.8427 157.867L13.675 160.919L12.2724 160.396Z" fill="#737373"/>
<ellipse cx="10.6917" cy="10.7535" rx="10.6917" ry="10.7535" transform="matrix(0.504329 0.863512 -0.868503 0.495684 18.6791 0)" fill="#D9D9D9"/>
<path d="M21.902 11.5059C20.1936 7.5906 15.5991 5.78606 11.6387 7.47529C7.67908 9.16309 5.85317 13.7057 7.56172 17.6198C9.26924 21.5343 13.8638 23.3378 17.8248 21.6505C21.7837 19.9621 23.6106 15.4201 21.902 11.5059ZM14.7956 19.5343L14.2641 16.3203L13.1772 15.5663L9.94568 16.0875L9.70513 14.6253L12.915 14.1061L13.7111 12.9855L13.1891 9.83212L14.6689 9.59325L15.1995 12.7936L16.2994 13.5589L19.5182 13.0379L19.7601 14.5006L16.4815 15.0311L15.7421 16.073L16.2746 19.2936L14.7956 19.5343Z" fill="black"/>
<path d="M21.902 11.5059C20.1936 7.5906 15.5991 5.78606 11.6387 7.47529C7.67908 9.16309 5.85317 13.7057 7.56172 17.6198C9.26924 21.5343 13.8638 23.3378 17.8248 21.6505C21.7837 19.9621 23.6106 15.4201 21.902 11.5059ZM14.7956 19.5343L14.2641 16.3203L13.1772 15.5663L9.94568 16.0875L9.70513 14.6253L12.915 14.1061L13.7111 12.9855L13.1891 9.83212L14.6689 9.59325L15.1995 12.7936L16.2994 13.5589L19.5182 13.0379L19.7601 14.5006L16.4815 15.0311L15.7421 16.073L16.2746 19.2936L14.7956 19.5343Z" fill="white"/>
<path d="M14.7956 19.5343L14.2641 16.3203L13.1772 15.5663L9.94568 16.0875L9.70513 14.6253L12.915 14.1061L13.7111 12.9855L13.1891 9.83212L14.6689 9.59325L15.1995 12.7936L16.2994 13.5589L19.5182 13.0379L19.7601 14.5006L16.4815 15.0311L15.7421 16.073L16.2746 19.2936L14.7956 19.5343Z" fill="#737373"/>
<ellipse cx="10.669" cy="10.7761" rx="10.669" ry="10.7761" transform="matrix(-0.261615 0.965172 -0.966664 -0.256048 598.528 148.521)" fill="#D9D9D9"/>
<path d="M592.577 158.91C594.169 154.947 592.211 150.46 588.202 148.886C584.195 147.311 579.655 149.247 578.063 153.209C576.471 157.171 578.429 161.658 582.437 163.233C586.444 164.807 590.985 162.872 592.577 158.91ZM581.809 159.619L583.732 156.975L583.503 155.682L580.845 153.792L581.721 152.59L584.362 154.467L585.726 154.231L587.613 151.636L588.83 152.502L586.916 155.135L587.147 156.445L589.795 158.327L588.92 159.53L586.222 157.614L584.954 157.834L583.027 160.483L581.809 159.619Z" fill="black"/>
<path d="M592.577 158.91C594.169 154.947 592.211 150.46 588.202 148.886C584.195 147.311 579.655 149.247 578.063 153.209C576.471 157.171 578.429 161.658 582.437 163.233C586.444 164.807 590.985 162.872 592.577 158.91ZM581.809 159.619L583.732 156.975L583.503 155.682L580.845 153.792L581.721 152.59L584.362 154.467L585.726 154.231L587.613 151.636L588.83 152.502L586.916 155.135L587.147 156.445L589.795 158.327L588.92 159.53L586.222 157.614L584.954 157.834L583.027 160.483L581.809 159.619Z" fill="white"/>
<path d="M581.809 159.619L583.732 156.975L583.503 155.682L580.845 153.792L581.721 152.59L584.362 154.467L585.726 154.231L587.613 151.636L588.83 152.502L586.916 155.135L587.147 156.445L589.795 158.327L588.92 159.53L586.222 157.614L584.954 157.834L583.027 160.483L581.809 159.619Z" fill="#737373"/>
<defs>
<linearGradient id="paint0_linear_18_67" x1="454.806" y1="27" x2="454.806" y2="45.0925" gradientUnits="userSpaceOnUse">
<stop stop-color="#901400"/>
<stop offset="0.5" stop-color="#FF2400"/>
<stop offset="1" stop-color="#901400"/>
</linearGradient>
<linearGradient id="paint1_linear_18_67" x1="406" y1="89.3185" x2="424.302" y2="89.3185" gradientUnits="userSpaceOnUse">
<stop stop-color="#0014C8"/>
<stop offset="0.5" stop-color="#52D6FF"/>
<stop offset="1" stop-color="#0014C8"/>
</linearGradient>
<linearGradient id="paint2_linear_18_67" x1="454.856" y1="77.8618" x2="454.856" y2="95.3121" gradientUnits="userSpaceOnUse">
<stop stop-color="#901400"/>
<stop offset="0.5" stop-color="#FF2400"/>
<stop offset="1" stop-color="#901400"/>
</linearGradient>
<linearGradient id="paint3_linear_18_67" x1="455.823" y1="135.694" x2="455.823" y2="153.145" gradientUnits="userSpaceOnUse">
<stop stop-color="#901400"/>
<stop offset="0.5" stop-color="#FF2400"/>
<stop offset="1" stop-color="#901400"/>
</linearGradient>
<radialGradient id="paint4_radial_18_67" cx="0" cy="0" r="1" gradientUnits="userSpaceOnUse" gradientTransform="translate(91.4998 89.4999) rotate(90) scale(48.9865 48.9865)">
<stop stop-color="white"/>
<stop offset="1" stop-color="#C8C8C8"/>
</radialGradient>
<radialGradient id="paint5_radial_18_67" cx="0" cy="0" r="1" gradientUnits="userSpaceOnUse" gradientTransform="translate(91.4998 89.4999) rotate(90) scale(48.9865 48.9865)">
<stop stop-color="white"/>
<stop offset="1" stop-color="#C8C8C8"/>
</radialGradient>
<radialGradient id="paint6_radial_18_67" cx="0" cy="0" r="1" gradientUnits="userSpaceOnUse" gradientTransform="translate(226.5 89.5) rotate(90) scale(48.9865)">
<stop stop-color="white"/>
<stop offset="1" stop-color="#C8C8C8"/>
</radialGradient>
<radialGradient id="paint7_radial_18_67" cx="0" cy="0" r="1" gradientUnits="userSpaceOnUse" gradientTransform="translate(226.5 89.5) rotate(90) scale(48.9865)">
<stop stop-color="white"/>
<stop offset="1" stop-color="#C8C8C8"/>
</radialGradient>
<radialGradient id="paint8_radial_18_67" cx="0" cy="0" r="1" gradientUnits="userSpaceOnUse" gradientTransform="translate(555.93 47.6315) rotate(90) scale(5.04008 5.18631)">
<stop stop-color="#FFD700"/>
<stop offset="1" stop-color="#FFD700"/>
</radialGradient>
<radialGradient id="paint9_radial_18_67" cx="0" cy="0" r="1" gradientUnits="userSpaceOnUse" gradientTransform="translate(498.304 109.232) rotate(90) scale(5.04008 5.18631)">
<stop stop-color="#FFD700"/>
<stop offset="1" stop-color="#FFD700"/>
</radialGradient>
</defs>
</svg>
